<?xml version="1.0" encoding="UTF-8"?>
<!DOCTYPE svg PUBLIC "-//W3C//DTD SVG 1.1//EN" "http://www.w3.org/Graphics/SVG/1.1/DTD/svg11.dtd">
<!-- Creator: CorelDRAW 2021 (64-Bit) -->
<svg xmlns="http://www.w3.org/2000/svg" xml:space="preserve" width="1.66667in" height="1.78529in" version="1.1" style="shape-rendering:geometricPrecision; text-rendering:geometricPrecision; image-rendering:optimizeQuality; fill-rule:evenodd; clip-rule:evenodd"
viewBox="0 0 60.72 65.04"
 xmlns:xlink="http://www.w3.org/1999/xlink"
 xmlns:xodm="http://www.corel.com/coreldraw/odm/2003">
 <defs>
  <style type="text/css">
   <![CDATA[
    .fil0 {fill:black}
   ]]>
  </style>
 </defs>
 <g id="Layer_x0020_1">
  <metadata id="CorelCorpID_0Corel-Layer"/>
  <g>
   <path class="fil0" d="M33.58 43.9c-0.75,0.29 -1.09,0.57 -2.07,0.73 -1.37,0.23 -3.08,-0.25 -4.04,-1.08 -0.83,-0.71 -0.93,-1.07 -1.22,-1.38 -0.37,0.05 -3.7,1.33 -3.98,1.51 -1.9,1.24 -2.06,3.27 -1.7,3.63 0.17,0.17 19.99,0.19 20.4,-0.03 0.27,-0.94 -0.21,-2.2 -0.69,-2.62 -0.07,-0.26 -0.02,-0.08 -0.37,-0.45 -0.19,-0.19 -0.3,-0.27 -0.55,-0.41 -0.37,-0.21 -0.87,-0.42 -1.32,-0.61 -0.87,-0.36 -1.95,-0.73 -2.8,-1.02 -0.2,0.18 -0.66,0.91 -1.23,1.37 -0.14,0.11 -0.35,0.24 -0.43,0.36zm-22.32 -21.62c0.19,0.32 1.04,0.84 1.36,1l0.42 0.29 0.34 -0.22c0.05,-0.46 -0.2,-0.63 -0.53,-0.69 -0.18,-0.32 -0.95,-0.79 -1.3,-0.97 -0.17,-0.19 -0.3,-0.27 -0.6,-0.43 -0.18,-0.19 -0.18,-0.25 -0.58,-0.19l-0.19 0.22c0.01,0.42 0.15,0.52 0.46,0.57 0.15,0.26 0.36,0.39 0.62,0.43zm37.42 1.21l1.84 -1.04c0.36,-0.17 0.6,-0.24 0.69,-0.63l-0.2 -0.31c-0.42,-0.04 -0.65,0.18 -0.94,0.35l-1.65 0.98c-0.52,0.23 -0.81,0.37 -0.42,0.87 0.34,0.06 0.57,-0.02 0.68,-0.21zm-36.95 20.88c0.34,-0.16 0.63,-0.34 0.93,-0.52 0.33,-0.19 0.7,-0.32 0.91,-0.6 0.24,-0.03 0.15,0 0.42,-0.16 0.23,-0.13 0.21,-0.11 0.34,-0.29 0.27,-0.03 0.27,-0.05 0.47,-0.2 0.12,-0.91 -0.58,-0.63 -0.93,-0.3l-0.9 0.54c-0.39,0.14 -1.49,0.71 -1.71,1.02 -0.31,0.04 -0.62,0.24 -0.8,0.47l0.04 0.46c0.51,0.11 0.9,-0.16 1.24,-0.43zm35.38 -1.56c0.21,0.28 0.58,0.41 0.91,0.6 0.38,0.21 0.65,0.43 1.08,0.58 0.1,0.13 0.37,0.26 0.57,0.39 0.48,0.28 0.58,0.38 0.82,0.13 0.39,-0.49 -0.46,-0.86 -0.78,-0.91 -0.17,-0.24 -0.15,-0.19 -0.42,-0.32 -0.2,-0.1 -0.32,-0.18 -0.5,-0.28 -0.35,-0.19 -0.68,-0.43 -1.09,-0.57 -0.1,-0.16 -0.98,-0.73 -1.29,-0.6 -0.6,0.24 0.08,0.94 0.69,1zm-16.53 -30.8l-0 2.52 0.02 1.07c0.32,0.19 0.24,0.19 0.64,0.12l0.01 -0.24c0.22,-0.08 0.09,-4.02 0.1,-4.76 0,-0.29 0.07,-0.43 -0.1,-0.56l-0.01 -0.23c-0.35,-0.07 -0.39,-0.03 -0.62,0.11l-0.05 0.96 0 1.01zm-30.56 30.02c-0.02,0.61 0,1.26 0.01,1.87 0.01,1.72 -0.32,1.96 0.89,1.95 6.32,-0.07 5.64,0.57 5.63,-1.87l-0.47 0.01 -0.05 1.36c-0.57,0.11 -5.11,0.11 -5.48,-0.02 -0.2,-0.55 -0.04,-2.45 -0.05,-3.21l0.03 -0.22 2.54 0 0 -0.47c-0.75,0 -2.38,-0.09 -2.97,0.07l-0.07 0.53zm1.46 4.34c-0.07,-0.23 0.15,-0.02 -0.12,-0.21 -0.24,-0.17 -0.59,0.01 -0.75,0.07l0 0.24c-0.13,0.14 -0.03,-0.08 -0.1,0.15 -0.03,0.09 -0.01,0.16 -0.01,0.27l1.14 0c0.01,-0.51 -0.01,-0.39 -0.15,-0.51zm3.03 1.3c-0.27,-0.88 -1.59,-0.49 -1.59,-0.46l-0.27 0.08c-0.11,0.23 -0.19,0.49 -0.15,0.87 0.46,0.03 1.6,0.08 2.05,-0.08l-0.03 -0.41zm2.39 -0c0,-0.72 -1.39,-0.65 -1.68,-0.37 -0.19,0.09 -0.23,0.07 -0.28,0.36 -0.03,0.19 -0.01,0.33 0,0.52l2.04 -0.06c0.02,-0.13 0.04,-0.14 0.02,-0.29 -0.03,-0.19 -0.02,-0.07 -0.09,-0.17zm-4.89 0c0,-0.75 -1.4,-0.63 -1.68,-0.37 -0.34,0.15 -0.34,0.43 -0.27,0.86l2.02 -0.05c0.02,-0.11 0.05,-0.1 0.03,-0.26 -0.03,-0.19 -0.02,-0.07 -0.09,-0.17zm1.72 -1.58c-0.68,-0.04 -0.8,0.14 -0.8,0.81l1.14 0c0.01,-0.51 -0.04,-0.55 -0.34,-0.82zm2.44 0c-0.71,-0.04 -0.79,0.12 -0.8,0.81l1.15 -0c0.02,-0.52 -0.01,-0.56 -0.35,-0.81zm-4.38 -2.36l0.01 -0.23 0.85 -0.14c0.04,0.47 0.02,0.46 -0.26,0.7l-0.41 -0.04c-0.16,-0.18 -0.07,-0.07 -0.19,-0.3zm1.13 -0.09c0.26,-0.71 0.06,-1.34 -0.79,-1.3 -0.87,0.04 -0.72,0.91 -0.57,1.42 0.1,0.37 0.14,0.24 0.19,0.56l-0.28 0.14c-0.32,0.13 -0.44,0.21 -0.54,0.67l2.55 -0.05c-0.1,-0.52 -0.29,-0.54 -0.81,-0.7 0.03,-0.42 0.16,-0.32 0.23,-0.75zm-0.94 0.68l0.48 -0.01c-0.05,0.51 -0.42,0.52 -0.48,0.01zm2.58 -2.53c0.29,-0 0.9,0.44 1.15,0.58l-0.12 0.3c-0.44,0.15 -0.56,0.4 -1.04,0.48l0 -1.35zm2.35 -0.36c-0.04,-0.13 0.09,-0.03 -0.1,-0.21 -0.09,-0.05 -3.13,-0.1 -3.32,0.01 -0.15,0.09 -0.04,0.01 -0.09,0.14 -0.23,0.12 -0.13,0.86 -0.13,1.38 0,0.88 -0.12,0.74 0.45,1.05l0.03 0.61c0.61,-0.07 0.56,-0.65 1.25,-0.68 0.59,-0.02 1.82,0.21 1.96,-0.23l-0.06 -2.06zm-1.26 -22.52l0.01 -0.73 1.07 -0.01c-0.02,-0.02 -0.03,-0.09 -0.05,-0.08l-1.92 -1.52c-0.3,0.12 -0.82,0.56 -1.13,0.78 -0.14,0.1 -1.02,0.69 -1.07,0.84 -0.49,0.17 -0.36,0.17 -0.35,1.41 0,0.59 -0.01,1.17 -0.01,1.76l1.11 -0.01 -0.01 -0.77 0.75 -0.06 0.04 -0.73 0.67 -0.05c0.21,-0.08 0.12,0.03 0.15,-0.31 0.01,-0.09 -0.01,-0.33 -0.01,-0.43 0.35,0 0.49,0.06 0.75,-0.1zm1.55 0.43l-0.42 -0.07 -0.05 0.52c0.06,-0 0.24,-0 0.28,-0.01 0.14,-0.03 0.13,-0.05 0.19,-0.08l-0 -0.36zm-0.29 -2.62l0.07 0.04 0.04 -0.9 -0.62 -0.03c-0.01,0.11 -0.04,0.2 -0.02,0.29 0.05,0.4 0.06,0.22 0.11,0.31 0.13,0.08 0.27,0.19 0.42,0.29zm-0.14 4.62l0.42 0.01 0.02 -0.47 -0.38 0.01c-0.06,0.13 -0.03,-0.1 -0.07,0.2 -0.01,0.05 -0,0.19 -0,0.24zm-0.35 -2c-0.3,-0.12 -0.83,-0.06 -1.22,-0.06l-0.03 0.5c0.34,0.01 0.97,0.06 1.25,-0.08l-0 -0.37zm0.78 -0.81l-1.23 -0.05 -0.01 0.51 0.97 -0.01c0.35,-0.05 0.12,0.01 0.26,-0.11l0.02 -0.35zm-2.78 2.01c0.37,0.02 0.92,0.06 1.2,-0.06l0.04 -0.39 -1.24 0.02 0.01 0.43zm-0.79 0.47l0.01 0.26c0.25,0.13 0.88,0.11 1.14,0.03 0.02,-0 0.04,-0.02 0.06,-0.03l0.02 -0.38c-0.5,0 -0.94,-0.07 -1.24,0.12zm1.57 0.32l1.2 0.03 0.03 -0.47 -1.23 0.02 0.01 0.42zm0.78 -0.78l1.2 0 0.02 -0.46 -1.23 0.02 0.01 0.44zm-1.93 -4.03c0.37,-0.07 0.17,-0.16 0.67,-0.36 0.22,0.12 0.37,0.27 0.6,0.39l0.24 0.23c0.46,0.37 1.57,1.28 2.06,1.3 -0.03,-0.54 0.02,-0.29 -0.78,-0.93 -0.35,-0.28 -0.59,-0.52 -0.96,-0.71 -0.32,-0.25 -0.8,-0.67 -1.15,-0.87 -0.26,0.07 -0.89,0.55 -0.98,0.73 -0.36,0.12 -1.2,0.84 -1.68,1.17 -0.28,0.2 -0.37,0.19 -0.27,0.61 0.39,-0.01 0.85,-0.48 1.15,-0.7 0.34,-0.25 0.87,-0.55 1.1,-0.88zm5.92 35.29c0.41,0.77 4.16,3.9 4.87,4.11 0.02,0.04 1.96,1.69 2.49,0.99 0.16,-0.21 0.14,-0.59 -0.02,-0.8l-1.73 -1.02 -2.43 -1.89c-0.28,-0.2 -0.36,-0.33 -0.6,-0.53 -0.64,-0.52 -1.41,-1.38 -1.66,-1.52l-1.9 -2.2c-0.48,-0 -0.83,0.1 -0.81,0.6 0.02,0.48 0.58,0.89 0.84,1.24l0.97 1.02zm42.31 -34.97c-0.77,0.43 -0.61,1.39 -0.33,2.08l1.26 -0c0.14,-0.32 0.09,-0.34 0.45,-0.43l0.47 0.72c0.45,-0.54 0.43,-1.21 0.9,-1.42 0.32,0.29 0.41,0.94 0.79,1.13l1.3 -0c0.08,-0.22 0.21,-0.48 0.25,-0.72 0.05,-0.35 0.02,-0.55 -0.18,-0.76 -0.06,-0.79 -1.44,-1.62 -2.64,-0.65 -0.51,-0.31 -1,-0.67 -1.79,-0.32l-0.45 0.38zm3.97 2.93l0.54 -0.47 -1.27 -0.05c-0.4,-0.52 -0.24,-0.49 -0.54,-0.9l-0.51 1.1 -0.22 0.34c-0.42,-0.17 -0.29,-0.3 -0.59,-0.64 -0.07,-0.08 -0.08,-0.08 -0.16,-0.15 -0.09,0.19 -0.03,0.1 -0.15,0.24l-1.08 0.03c0.15,0.29 0.23,0.3 0.51,0.57 0.22,0.21 0.36,0.35 0.57,0.56 1.48,1.47 0.86,1.4 2.47,-0.15 0.22,-0.21 0.28,-0.23 0.42,-0.49zm1.68 14.22c0.08,-1.68 -0.19,-6.49 -0.77,-7.73 -0.14,-0.7 -0.32,-1.29 -0.55,-1.95 -0.19,-0.56 -0.31,-1.62 -0.98,-1.61 -1.01,0.02 -0.42,1.32 -0.33,1.61 0.15,0.46 0.42,1.48 0.59,1.86 0.18,1.22 0.54,2.35 0.68,3.66 0.15,1.46 0.2,2.66 0.15,4.14l-0.38 3.54c-0.16,0.61 -0.58,1.99 0.33,1.99 0.77,0 0.76,-1.37 0.91,-2.05 0.23,-1.14 0.26,-2.28 0.35,-3.47zm2.24 9.75l0.01 -2.3c-2.24,-0.19 -3.72,-0.41 -5.99,0.01 -0.16,0.11 -0.13,-0.07 -0.12,0.71l-0 2.63c3.14,-0.09 2.5,-0.3 6.11,0l0 -1.04zm-0.44 3.3c-0.14,0.23 -0.11,0.43 -0.05,0.75 0.16,0.04 0.22,0.06 0.41,0.05 0.34,-0.02 0.24,0.03 0.34,-0.13 0,-0.1 0.02,-0.34 0.01,-0.41 -0.04,-0.32 0.02,-0.16 -0.11,-0.28 -0.12,-0.3 -0.28,-0.26 -0.51,-0.09 -0.13,0 -0.09,-0.03 -0.08,0.12zm-4.88 0.01c-0.15,0.19 -0.11,0.46 -0.05,0.73 0.17,0.04 0.21,0.06 0.4,0.05 0.34,-0.02 0.24,0.03 0.33,-0.13 0,-0.09 0.02,-0.33 0.01,-0.41 -0.04,-0.34 0.01,-0.17 -0.11,-0.28l-0.12 -0.19c-0.17,-0.02 -0.06,-0.05 -0.25,-0 -0.11,0.03 -0.1,0.07 -0.13,0.1 -0.14,0 -0.1,-0.03 -0.09,0.13zm3.94 -0.02c-0.17,0.22 -0.11,0.49 -0.06,0.77l0.71 -0.02 -0.02 -0.45 0 -0.03 -0.02 -0.28c-0.18,-0.29 -0.26,-0.23 -0.57,-0.18l-0.03 0.19zm-4.89 -0c-0.07,0.08 -0.06,0.02 -0.09,0.19l0.03 0.58 0.71 -0.02c0.07,-0.27 0.12,-0.59 -0.04,-0.76l-0.05 -0.2 -0.51 0.02 -0.04 0.19zm4.57 0.33c-0.05,-0.86 -0.63,-0.57 -0.62,-0.33 -0.08,0.1 -0.06,0.01 -0.1,0.19l0.03 0.57 0.67 -0.05 0.02 -0.38zm-0.98 0c-0.02,-0.41 -0.03,-0.47 -0.37,-0.56 -0.23,0.09 -0.26,0.1 -0.35,0.35l0.04 0.64 0.67 -0.05 0.02 -0.38zm-0.98 0.06l-0.04 -0.43 -0.31 -0.18c-0.3,0.09 -0.3,0.08 -0.36,0.41l0.02 0.56 0.69 -0.04 0.01 -0.32zm-0.24 -0.9c0.1,0.08 0.19,0.14 0.31,0.24 0.7,-0.24 0.46,-0.65 -0.1,-0.67 -0.17,0.19 -0.17,0.17 -0.21,0.43zm-1.43 -0.7c0.35,0.29 0.4,0.17 0.73,0.01l-0.17 -0.45c-0.42,-0.05 -0.58,0.02 -0.56,0.44zm4.72 0.94l0.38 -0.25 -0.08 -0.39c-0.45,-0.1 -0.61,-0.1 -0.65,0.41l0.35 0.23zm-4.53 -0.24c-0.01,-0.3 -0.01,-0.46 -0.35,-0.43 -0.29,0.02 -0.32,0.16 -0.36,0.45l0.35 0.21c0.26,-0.1 0.15,-0.02 0.36,-0.23zm1.73 -0.66c0.3,0.12 0.12,0.11 0.45,0.16l0.3 -0.3 -0.23 -0.33c-0.51,-0.09 -0.5,0 -0.53,0.47zm1.84 0.91l0.35 -0.25c-0.07,-0.49 -0.18,-0.49 -0.66,-0.39l-0.06 0.41 0.37 0.23zm-2.87 0.02l0.29 -0.27c-0.11,-0.65 -0.67,-0.6 -0.74,0.03l0.45 0.25zm2.04 -0.67c-0.37,-0.17 -0.96,0.31 -0.11,0.64 0.2,-0.15 0.2,-0.09 0.32,-0.33 -0.07,-0.2 -0.02,-0.23 -0.21,-0.31zm1.32 -0.08c0.1,-0.05 0.26,-0.16 0.37,-0.24l-0.12 -0.46 -0.51 0.03 -0.11 0.43 0.37 0.23zm-3.31 -0.18c0.42,0.19 0.32,0.17 0.73,-0 -0.04,-0.46 -0.03,-0.56 -0.54,-0.48 -0.17,0.18 -0.16,0.16 -0.2,0.48zm2.32 0.18c0.21,-0.17 0.18,-0.04 0.38,-0.31l-0.12 -0.35c-0.37,-0.07 -0.18,-0.11 -0.54,0.03l-0.07 0.41 0.36 0.22zm-4.39 -1.21c0.19,-0.23 0.18,-2.39 0.14,-2.95 -0.02,-0.36 -0.06,-0.28 -0.14,-0.39l-0.11 3.02c0.03,0.39 0.01,0.2 0.11,0.31zm6.81 -3.34c-0.19,0.33 -0.09,1.32 -0.09,1.71 0,0.44 -0.13,1.31 0.09,1.63 0.24,-0.11 0.14,-0.42 0.14,-0.76l0.01 -1.83c0.01,-0.92 0.05,-0.59 -0.15,-0.74zm-6.2 6.52c-0.93,-0.01 -0.61,-0.03 -0.71,0.16 0.08,0.05 0.04,0.05 0.19,0.08l5.15 0.01c0.29,0 0.58,-0 0.87,0l0.82 -0.09c-0.2,-0.27 -0.43,-0.17 -0.82,-0.17l-5.5 0.01zm-50.47 -11.89c-0.11,-1.78 -0.3,-3.37 -0.13,-5.19 0.08,-0.79 0.15,-1.58 0.28,-2.33 0.15,-0.81 0.33,-1.54 0.47,-2.31 0.13,-0.36 0.97,-2.96 0.85,-3.2 -0.15,-0.32 -0.84,-0.61 -1.17,0.15 -0.29,0.67 -0.82,2.46 -0.92,3.13 -0.36,0.81 -0.65,3.54 -0.74,4.56 -0.14,1.46 -0.07,3.62 0.13,5.08 0.08,0.74 0.16,1.3 0.3,2.02 0.12,0.61 0.11,1.5 0.75,1.53 1.1,0.05 0.41,-1.78 0.17,-3.43zm39.15 20.17c-0.05,0.88 0.53,0.98 1.16,0.58l2.63 -1.73c0.12,-0.08 0.23,-0.17 0.35,-0.26l1.48 -1.22c0.39,-0.29 2.43,-2.4 2.9,-3.04 0.13,-0.17 0.11,-0.1 0.25,-0.27l0.44 -0.62c0.17,-0.69 -0.61,-1.08 -1.12,-0.5 -0.6,0.68 -0.53,0.77 -1.29,1.51 -0.1,0.1 -0.15,0.17 -0.24,0.28l-2.81 2.61c-1.05,0.82 -3.4,2.25 -3.77,2.67zm-16.24 4.35c0.36,0.19 0.39,0.31 0.31,0.8 -0.43,0.37 -0.78,0.27 -1.46,0.28l0 -0.98 0 -0.13 1.15 0.03zm2.59 4.39c0.27,-0.17 2.9,-5.66 3.07,-6.25 -1.23,0.01 -0.89,-0.13 -1.36,0.78l-1.86 3.9c-0.26,0.52 -0.54,1 -0.73,1.56l0.88 -0zm4.91 -0.82l1.22 0.01 1.9 -4.77 -1.42 -0 -1.08 2.97 -1.1 -2.97 -1.43 0.01 1.91 4.74zm-13.16 -3.21c0.19,0.39 0.37,0.87 0.53,1.28l-1.04 0.04 0.51 -1.32zm-1.29 3.19c0.19,-0.25 0.26,-0.52 0.37,-0.85 1.86,-0 1.89,-0.27 2.16,0.85l1.42 -0.03 -1.98 -4.74c-1.43,-0 -1.23,-0.09 -1.39,0.23 -0.36,0.69 -1.45,3.59 -1.91,4.55l1.33 -0zm19.43 -2.47c-0.11,-0.1 -0.06,-0 -0.09,-0.2l-0.01 -0.95c0.34,-0.05 0.92,-0.1 1.22,0.08 0.39,0.17 0.53,0.65 0.21,0.92 -0.24,0.2 -0.99,0.15 -1.34,0.15zm-0.03 1.02c1.04,0.02 0.6,0.42 1.53,1.45l1.49 0 -0.53 -0.78c-0.21,-0.3 -0.39,-0.54 -0.57,-0.84 0.01,-0.02 0.03,-0.04 0.04,-0.05l0.36 -0.25c0.79,-0.55 0.83,-2.6 -0.84,-2.75l-2.76 -0.03 0 4.62 1.18 0.01c0,-0.36 -0.1,-1.1 0.09,-1.39zm-11.74 -0.21c0.49,-0.26 0.8,-0.48 0.91,-1.09 0.43,-2.28 -2.43,-2.16 -4.15,-1.97l0 4.72 1.32 -0 0 -1.44 0.59 -0c0.12,0.26 0.75,1.26 1.02,1.44l1.35 -0c-0.18,-0.45 -0.78,-1.29 -1.05,-1.66zm5.36 -58.53c0.3,-0.2 0.52,-0.25 0.69,0.17l-0.14 0.35 -0.49 -0.03 -0.06 -0.49zm-0.01 0.8c-0.19,0.69 -0.8,0.48 -0.6,-0.25l0.43 -0.03c0.07,0.11 0.11,0.16 0.18,0.28zm-0.82 -0.29c-0.36,0.02 -0.31,0.03 -0.6,-0.18 0.09,-0.35 0.09,-0.39 0.39,-0.49 0.28,0.1 0.16,0.04 0.33,0.24 0,0.24 -0.04,0.31 -0.11,0.43zm-1.59 -0.46c-0.17,0.18 -0.14,-0.24 -0.14,0.23 0.46,0.32 0.51,0.77 0.05,0.66 -0.22,-0.05 -0.14,-0.16 -0.46,-0.36 -0.4,0.23 -0.4,0.57 -0.69,0.27 -0.32,-0.33 0.15,-0.22 0.27,-0.79 -0.17,-0.11 -0.14,-0.08 -0.32,-0.17 -0.02,-0.12 -0.03,-0.29 0,-0.46 0.46,-0.08 0.39,0.12 0.74,0.32 0.17,-0.11 0.41,-0.45 0.66,-0.32 0.31,0.17 -0.03,0.43 -0.1,0.63zm-2.66 -0.64c-0.04,2.42 -0.09,3.59 2.55,3.57 2.01,-0.01 4.11,0.41 4.42,-1.68 0.65,-5.46 -2.63,-3.55 -3.54,-4.1l0.11 -0.06c0.88,-0.4 0.47,-1.05 0.41,-1.09l-0.25 -0.05c-0.14,0.24 -0.11,0.24 -0.12,0.58 -0.39,0.16 -0.61,0.19 -0.65,0.7 -1.85,0 -2.87,0.21 -2.93,2.13zm4.39 -0.03c0.11,-0.18 0.13,-0.17 0.35,-0.26l0.31 0.25c-0.04,0.66 -0.66,0.68 -0.67,0.01zm-23.45 12.62c1.01,0.54 1.27,-0.42 2.42,-1.59l1.93 -1.82c1.94,-1.77 5.67,-3.84 8.14,-4.7 0.53,-0.18 2.12,-0.46 1.5,-1.34 -0.38,-0.54 -1.52,0.08 -2.12,0.29 -2.56,0.88 -4.72,2.16 -6.85,3.71l-3.58 3.15c-0.13,0.14 -0.26,0.24 -0.4,0.38 -0.13,0.14 -0.18,0.25 -0.3,0.4 -0.34,0.42 -0.91,0.57 -0.73,1.53zm42.97 -0.2c0.08,-0.76 -0.54,-1.1 -1.11,-1.76 -2.16,-2.5 -5.42,-4.8 -8.37,-6.22 -0.79,-0.38 -3.53,-1.57 -4.3,-1.54 -0.98,0.8 -0.07,1.14 0.75,1.42 0.83,0.28 1.48,0.53 2.27,0.88 1.46,0.64 2.83,1.41 4.01,2.19 0.32,0.21 0.55,0.4 0.87,0.61 2.56,1.73 4.5,4.25 4.88,4.55 0.41,0.31 0.66,0.16 1,-0.14zm-16.19 11.74c0.93,0.29 1.13,0.63 1.72,0.97 -0.18,-0.48 -0.57,-1 -0.88,-1.19 -0.32,-0.33 -0.74,-0.54 -1.3,-0.7l-1.49 -0.12 -2.02 -0.01 -2.58 0c-1.3,0.03 -3.14,-0.19 -4.08,1.04 -0.24,0.31 -0.54,0.61 -0.64,1.09 0.77,-0.5 0.95,-1.11 2.96,-1.29l2.74 -0 1.46 0 2.44 -0 1.67 0.22zm3.22 2.19c-0.28,-0.26 -0.43,-0.26 -0.86,-0.3 0.05,0.3 0.2,0.53 0.3,0.87 0.1,0.33 0.17,0.67 0.21,1.03 0.08,1.4 -0.23,1.65 -0.51,2.72l0.47 -0.03 0.04 -0.08c0.26,-0.07 0.16,-0 0.38,-0.16 0.26,-0.18 0.15,-0.13 0.19,-0.28 0.82,-0.59 0.67,-2.04 0.48,-2.88 -0.11,-0.15 -0.03,-0.04 -0.13,-0.23 -0.04,-0.07 -0.06,-0.12 -0.1,-0.17 -0.08,-0.1 -0.07,-0.08 -0.15,-0.15 -0.04,-0.26 -0.05,-0.23 -0.32,-0.36zm-16.06 3.94c0.2,0.27 0.53,0.35 0.96,0.39 -0.22,-0.88 -0.45,-1.1 -0.53,-2.2 0,-1.18 0.28,-1.5 0.52,-2.43l-0.71 0.2c-0.54,0.29 -0.89,0.84 -0.99,1.65 -0.09,0.7 0.03,1.71 0.48,2.06l0.26 0.34zm5.18 8.94c0.13,0.31 0.04,0.24 0.33,0.34 0.01,0.01 0.02,0.02 0.03,0.04l0.86 0.43c0.22,0.23 0.65,0.29 1.03,0.3 1.07,0.45 3.09,-0.33 3.98,-1.5 0.13,-0.17 0.21,-0.33 0.36,-0.47 -0.08,-0.27 -0.1,-0.26 -0.25,-0.48l-0.36 -0.45 -0.06 -0.15c-0.39,0.06 -0.72,0.21 -1.12,0.31 -0.36,0.09 -0.8,0.15 -1.2,0.19l-1.3 -0 -0.68 -0.07 -1.77 -0.44c-0.17,0.36 -0.51,0.69 -0.66,1.06 0.08,0.13 0.24,0.4 0.33,0.52l0.32 0.29c0.12,0.08 0.05,0.03 0.16,0.09zm1.73 -12.51l1.81 0.06 1.34 -0.03 0.11 0.48c-0.36,0.51 -0.88,0.33 -1.62,0.33 -0.75,0 -1.74,0.07 -2.42,-0.07 -0.39,-0.75 0.14,-0.79 0.78,-0.78zm4.16 -1.89c-1.9,-0 -6.56,-0.12 -6.95,0.07 -1.18,-0.03 -2.13,1.02 -2.47,1.82 -0.33,0.76 -0.56,2.81 0.1,3.41 0.17,0.45 0.41,0.76 0.79,1 0.03,0.06 -0.02,0.04 0.14,0.16l0.68 0.37c0.43,0.18 0.7,0.23 1.19,0.24l0.57 0.01 0.19 -0.01 6.27 0.03c1.54,-0.25 2.08,-0.5 2.73,-1.52 0.5,-0.79 0.84,-2.53 0.27,-3.44 -0.2,-0.79 -0.85,-1.43 -1.44,-1.72 -0.43,-0.25 -0.88,-0.31 -1.45,-0.42 -0.18,-0.01 -0.41,-0 -0.63,0.01zm-5.7 6.77c0.01,-0.01 0.02,-0.02 0.03,-0.03 -0.01,0.01 -0.02,0.02 -0.03,0.03zm0.04 -0.04c0.01,-0.01 0.02,-0.02 0.02,-0.02 -0.01,0.01 -0.02,0.01 -0.02,0.02zm0.03 -0.03c0.05,-0.04 0.06,-0.03 0.08,-0.02 -0.02,-0 -0.03,-0.02 -0.08,0.02zm0.08 -0.02c0,0 0.01,-0 0.01,-0 -0.01,0 -0.01,0 -0.01,0zm0.6 2.1c0.05,-1.18 1.09,0.06 1.98,0.05 0.98,-0.01 1,-0.69 1.73,-0.53 0.31,0.17 0.13,0.56 0.05,0.74l-3.77 -0.26zm3.76 0.27l-0 0.01c-0.33,0.14 -0.46,0.33 -0.87,0.47 -0.37,0.13 -0.77,0.17 -1.18,0.14 -0.71,-0.05 -1.44,-0.45 -1.71,-0.89l3.76 0.27zm3.68 0.46c0.48,-0.64 1.1,-1.69 1.16,-2.8 -0.48,0.14 -0.71,0.47 -1.17,0.72 -1.35,0.77 -3.72,0.51 -5.46,0.51 -1.76,0 -4.03,0.26 -5.42,-0.45 -0.32,-0.16 -0.33,-0.18 -0.58,-0.38 -0.24,-0.2 -0.29,-0.28 -0.63,-0.39 -0.03,0.45 0.22,1.17 0.4,1.53 0.69,2.07 3.1,3.51 5.23,3.81 2.77,0.39 5.44,-0.97 6.46,-2.56zm3.87 -12.94c0.19,-0.95 -0.5,-1.94 -1.32,-2.24l-5.35 -0.77c-1.93,-0.31 -4.58,-0.65 -6.47,0.24 -0.3,0.14 -0.52,0.26 -0.8,0.43 -0.27,0.16 -0.57,0.39 -0.73,0.6l-0.96 1.2c-0.64,1.12 -2.59,0.23 -2.08,4.63 1.24,-0.22 0.9,-0.55 1.46,-1.41 1.48,-2.25 3.91,-1.85 6.93,-1.85 2.49,0 5.81,-0.48 7.12,2.26 0.05,0.11 0.21,0.51 0.24,0.55 0.16,0.24 0.68,0.34 1,0.44 0.05,-0.61 -0.1,-1.86 0.1,-2.35 0.26,-0.64 0.72,-0.62 0.86,-1.73z"/>
  </g>
 </g>
</svg>
