<?xml version="1.0" encoding="UTF-8"?>
<!DOCTYPE svg PUBLIC "-//W3C//DTD SVG 1.1//EN" "http://www.w3.org/Graphics/SVG/1.1/DTD/svg11.dtd">
<!-- Creator: CorelDRAW 2021 (64-Bit) -->
<svg xmlns="http://www.w3.org/2000/svg" xml:space="preserve" width="1.66667in" height="1.67748in" version="1.1" style="shape-rendering:geometricPrecision; text-rendering:geometricPrecision; image-rendering:optimizeQuality; fill-rule:evenodd; clip-rule:evenodd"
viewBox="0 0 60.53 60.92"
 xmlns:xlink="http://www.w3.org/1999/xlink"
 xmlns:xodm="http://www.corel.com/coreldraw/odm/2003">
 <defs>
  <style type="text/css">
   <![CDATA[
    .fil0 {fill:black}
    .fil1 {fill:black}
   ]]>
  </style>
 </defs>
 <g id="Layer_x0020_1">
  <metadata id="CorelCorpID_0Corel-Layer"/>
  <g id="_2379743378560">
   <path class="fil0" d="M44.4 0l-1.51 0c-1.85,1.82 1.17,2.46 -3.25,3.04 -1.09,-2.7 -2.37,-1.65 -3.3,-0.96 -2.37,1.76 -1.03,1.66 -0.21,3.63l-1.14 1.73c-1.29,0.03 -2.49,-0.62 -2.98,0.71 -0.29,0.78 -0.36,2.34 -0.15,3.15 0.61,0.35 1.43,0.5 2.37,0.62l0.44 2.35c-0.75,0.6 -1.33,0.79 -1.77,1.81 0.29,1.11 1.38,2.57 2.34,2.9 1.02,-0.16 1.36,-0.77 2.23,-1.13 0.55,0.44 1.03,0.73 1.69,1.19 -0.02,0.93 -1.22,3.9 3.73,3.15 0.77,-1.07 0.31,-1.32 0.92,-2.49l2.17 -0.45c0.39,0.78 0.73,1.41 1.64,1.84 1.21,-0.14 2.62,-1.38 3.03,-2.3 -0.19,-1.3 -0.65,-1.01 -1.07,-2.23l1 -1.73 2.82 0.03c2.08,-4.54 -1.08,-4.33 -1.96,-4.57l-0.39 -2.14c0.61,-0.52 1.33,-1.04 1.7,-1.52 0.04,-1.28 -1.25,-2.7 -2.14,-3.28 -1.21,0.2 -1.32,0.68 -2.23,1.12 -0.38,-0.2 -0.58,-0.34 -0.94,-0.57 -0.09,-0.06 -0.37,-0.25 -0.47,-0.32 -0.29,-0.21 -0.27,-0.2 -0.47,-0.38 0.33,-3.57 0.18,-2.17 -2.08,-3.22zm-2.4 6.88c-6.1,1.56 -3.73,9.86 1.8,8.62 5.58,-1.25 3.82,-10.06 -1.8,-8.62z"/>
   <path class="fil0" d="M1.25 34.57c1.6,3.43 4.86,6.3 9.16,6.99l0.01 -3.7c-7.56,-1.55 -11.4,-15.26 1.82,-17.92 3.46,-0.7 0.86,-1.3 3.44,-6.01 0.95,-1.74 1.91,-2.96 3.18,-3.98 1.6,-1.28 2.24,-1.92 4.66,-2.73 2.17,-0.73 3.75,-0.85 6.22,-0.87 2.46,-3 2.09,-0.33 2.43,-3.33 -6.08,-0.57 -9.84,-0 -14.21,3.03 -2.93,2.03 -6.14,5.51 -7.09,10.48 -3.15,0.63 -5.4,1.9 -7.23,3.58 -3.95,3.62 -4.61,9.72 -2.4,14.46z"/>
   <path class="fil0" d="M49.75 37.68l0.01 3.46c4.83,-0.8 9.14,-5.07 10.31,-9.85 0.72,-2.93 0.59,-6.12 -0.19,-8.95 -0.9,-3.27 -2.31,-4.48 -3.72,-6.4l-0.45 0.34c-3.03,2.72 -2.35,1.69 -0.62,4.16 1.21,1.73 1.85,4.31 1.85,6.85 0.01,8.49 -6.16,9 -7.17,10.39z"/>
   <path class="fil1" d="M13.61 29.95l32.96 0c0.99,0 1.79,0.81 1.79,1.79l0 27.38c0,0.99 -0.81,1.79 -1.79,1.79l-32.96 0c-0.99,0 -1.79,-0.81 -1.79,-1.79l0 -27.38c0,-0.99 0.81,-1.79 1.79,-1.79zm4.61 22.46l8.19 0c0.27,0 0.49,0.22 0.49,0.49l0 0.68c0,0.27 -0.22,0.49 -0.49,0.49l-8.19 0c-0.27,0 -0.49,-0.22 -0.49,-0.49l0 -0.68c0,-0.27 0.22,-0.49 0.49,-0.49zm15.55 0l8.19 0c0.27,0 0.49,0.22 0.49,0.49l0 0.68c0,0.27 -0.22,0.49 -0.49,0.49l-8.19 0c-0.27,0 -0.49,-0.22 -0.49,-0.49l0 -0.68c0,-0.27 0.22,-0.49 0.49,-0.49zm-16.04 -12.58l24.73 0 0 9.24 -24.73 0 0 -9.24zm6.87 -6.75c0.77,0 1.39,0.62 1.39,1.39 0,0.77 -0.62,1.39 -1.39,1.39 -0.77,0 -1.39,-0.62 -1.39,-1.39 0,-0.77 0.62,-1.39 1.39,-1.39zm-4.08 0c0.77,0 1.39,0.62 1.39,1.39 0,0.77 -0.62,1.39 -1.39,1.39 -0.77,0 -1.39,-0.62 -1.39,-1.39 0,-0.77 0.62,-1.39 1.39,-1.39zm-4.08 0c0.77,0 1.39,0.62 1.39,1.39 0,0.77 -0.62,1.39 -1.39,1.39 -0.77,0 -1.39,-0.62 -1.39,-1.39 0,-0.77 0.62,-1.39 1.39,-1.39zm-2.59 4.21l32.49 0 0 21.19 -32.49 0 0 -21.19z"/>
  </g>
 </g>
</svg>
