<?xml version="1.0" encoding="UTF-8"?>
<!DOCTYPE svg PUBLIC "-//W3C//DTD SVG 1.1//EN" "http://www.w3.org/Graphics/SVG/1.1/DTD/svg11.dtd">
<!-- Creator: CorelDRAW 2021 (64-Bit) -->
<svg xmlns="http://www.w3.org/2000/svg" xml:space="preserve" width="1.66667in" height="1.62769in" version="1.1" style="shape-rendering:geometricPrecision; text-rendering:geometricPrecision; image-rendering:optimizeQuality; fill-rule:evenodd; clip-rule:evenodd"
viewBox="0 0 60.33 58.92"
 xmlns:xlink="http://www.w3.org/1999/xlink"
 xmlns:xodm="http://www.corel.com/coreldraw/odm/2003">
 <defs>
  <style type="text/css">
   <![CDATA[
    .fil0 {fill:black;fill-rule:nonzero}
   ]]>
  </style>
 </defs>
 <g id="Layer_x0020_1">
  <metadata id="CorelCorpID_0Corel-Layer"/>
  <g id="_2343371977264">
   <path class="fil0" d="M42.86 58.92l-25.4 0c-0.69,0 -1.24,-0.74 -1.24,-1.65l0 -2.4c0,-0.91 0.56,-1.65 1.24,-1.65l25.4 0c0.69,0 1.24,0.74 1.24,1.65l0 2.4c0,0.91 -0.56,1.65 -1.24,1.65z"/>
   <path class="fil0" d="M34.71 50.68l-9.1 0c-0.86,0 -1.46,-1.02 -1.17,-2l1.9 -6.36c0.18,-0.59 0.65,-0.99 1.17,-0.99l5.29 0c0.52,0 0.99,0.4 1.17,0.99l1.9 6.36c0.29,0.97 -0.31,2 -1.17,2z"/>
   <g>
    <path class="fil0" d="M59.08 38.8l-57.84 0c-0.69,0 -1.24,-0.56 -1.24,-1.24l0 -36.31c0,-0.69 0.56,-1.24 1.24,-1.24l57.84 0c0.69,0 1.24,0.56 1.24,1.24l0 36.31c0,0.69 -0.56,1.24 -1.24,1.24zm-56.29 -6.36c0,0.36 0.29,0.66 0.66,0.66l53.42 0c0.36,0 0.66,-0.29 0.66,-0.66l0 -28.99c0,-0.36 -0.29,-0.66 -0.66,-0.66l-53.42 0c-0.36,0 -0.66,0.29 -0.66,0.66l0 28.99zm28.49 3.52c0,-0.62 -0.5,-1.12 -1.12,-1.12 -0.62,0 -1.12,0.5 -1.12,1.12 0,0.62 0.5,1.12 1.12,1.12 0.62,0 1.12,-0.5 1.12,-1.12z"/>
    <path class="fil0" d="M30.82 23.51c1.36,1.6 2.45,2.28 3.88,2.61l-0.02 2.02c0.6,0.19 1.22,0.33 1.87,0.41l0.86 -1.84c0.19,0.01 0.38,0.02 0.57,0.02 0.19,0 0.38,-0.01 0.57,-0.02l0.86 1.84c0.64,-0.08 1.26,-0.22 1.86,-0.41l-0.02 -2.02c0.37,-0.14 0.72,-0.31 1.06,-0.49l1.59 1.29c0.53,-0.34 1.03,-0.73 1.49,-1.15l-0.9 -1.82c0.28,-0.3 0.54,-0.61 0.78,-0.94l2 0.48c0.32,-0.52 0.6,-1.08 0.83,-1.65l-1.61 -1.26c0.13,-0.4 0.22,-0.82 0.29,-1.24l2.01 -0.44c0.03,-0.3 0.04,-0.61 0.04,-0.92 0,-0.31 -0.01,-0.62 -0.04,-0.92l-2.01 -0.44c-0.07,-0.42 -0.16,-0.84 -0.29,-1.24l1.61 -1.26c-0.23,-0.58 -0.5,-1.13 -0.83,-1.65l-2 0.48c-0.24,-0.33 -0.5,-0.65 -0.78,-0.94l0.9 -1.82c-0.46,-0.42 -0.96,-0.81 -1.49,-1.15l-1.59 1.29c-0.34,-0.19 -0.69,-0.35 -1.06,-0.5l0.02 -2.02c-0.6,-0.19 -1.22,-0.33 -1.86,-0.41l-0.86 1.84c-0.19,-0.01 -0.38,-0.02 -0.57,-0.02 -0.19,0 -0.38,0.01 -0.57,0.02l-0.86 -1.84c-0.64,0.08 -1.27,0.22 -1.87,0.41l0.02 2.02c-0.37,0.14 -0.72,0.31 -1.06,0.5l-1.59 -1.29c-0.53,0.34 -1.03,0.72 -1.49,1.15l0.9 1.82 0 0c-2.7,2.81 -2.23,5.87 -2.23,5.9 0,3.81 -3.09,6.89 -6.89,6.89 -3.81,0 -6.89,-3.09 -6.89,-6.89 0,-3.81 3.09,-6.89 6.89,-6.89 2.69,0 5.02,1.54 6.15,3.79l1.14 -1.92c-0.24,-0.33 -0.5,-0.65 -0.78,-0.94l0.9 -1.82c-0.46,-0.42 -0.96,-0.81 -1.49,-1.15l-1.59 1.29c-0.34,-0.19 -0.69,-0.35 -1.06,-0.5l0.02 -2.02c-0.6,-0.19 -1.22,-0.33 -1.86,-0.41l-0.86 1.84c-0.19,-0.01 -0.38,-0.02 -0.57,-0.02 -0.19,0 -0.38,0.01 -0.57,0.02l-0.86 -1.84c-0.64,0.08 -1.27,0.22 -1.87,0.41l0.02 2.02c-0.37,0.14 -0.72,0.31 -1.06,0.5l-1.59 -1.29c-0.53,0.34 -1.03,0.72 -1.49,1.15l0.9 1.82 0 0c-0.28,0.29 -0.54,0.61 -0.78,0.94l-2.01 -0.48c-0.32,0.52 -0.6,1.08 -0.83,1.65l1.61 1.26c-0.13,0.4 -0.22,0.81 -0.29,1.24l-2.01 0.44c-0.03,0.3 -0.04,0.61 -0.04,0.92 0,0.31 0.01,0.62 0.04,0.92l2.01 0.44c0.07,0.42 0.16,0.84 0.29,1.24l-1.61 1.26c0.23,0.58 0.5,1.13 0.83,1.65l2.01 -0.48c0.24,0.33 0.5,0.65 0.78,0.94l0 0 -0.9 1.82c0.46,0.42 0.96,0.81 1.49,1.15l1.59 -1.29c0.34,0.19 0.69,0.35 1.06,0.49l-0.02 2.02c0.6,0.19 1.22,0.33 1.87,0.41l0.86 -1.84c0.19,0.01 0.38,0.02 0.57,0.02 0.19,0 0.38,-0.01 0.57,-0.02l0.86 1.84c0.64,-0.08 1.26,-0.22 1.86,-0.41l-0.02 -2.02c0.37,-0.14 0.72,-0.31 1.06,-0.49l1.59 1.29c0.53,-0.34 1.03,-0.73 1.49,-1.15l-0.9 -1.82c2.66,-2.8 2.23,-5.87 2.23,-5.9 0,-3.81 3.09,-6.89 6.89,-6.89 3.81,0 6.89,3.09 6.89,6.89 0,3.81 -3.09,6.89 -6.89,6.89 -2.33,0 -4.72,-1.61 -5.96,-3.39l-1.19 2.03z"/>
   </g>
  </g>
 </g>
</svg>
