<?xml version="1.0" encoding="UTF-8"?>
<!DOCTYPE svg PUBLIC "-//W3C//DTD SVG 1.1//EN" "http://www.w3.org/Graphics/SVG/1.1/DTD/svg11.dtd">
<!-- Creator: CorelDRAW 2021 (64-Bit) -->
<svg xmlns="http://www.w3.org/2000/svg" xml:space="preserve" width="1.66667in" height="1.66672in" version="1.1" style="shape-rendering:geometricPrecision; text-rendering:geometricPrecision; image-rendering:optimizeQuality; fill-rule:evenodd; clip-rule:evenodd"
viewBox="0 0 60.12 60.12"
 xmlns:xlink="http://www.w3.org/1999/xlink"
 xmlns:xodm="http://www.corel.com/coreldraw/odm/2003">
 <defs>
  <style type="text/css">
   <![CDATA[
    .fil0 {fill:black}
   ]]>
  </style>
 </defs>
 <g id="Layer_x0020_1">
  <metadata id="CorelCorpID_0Corel-Layer"/>
  <g id="_2343172674976">
   <path class="fil0" d="M42.27 24.78c-3.28,1.33 -2.36,6.39 -2.36,11.62 0,4.66 0,9.32 0,13.99 0,4.96 -1.17,9.64 4.28,9.7 5.61,0.06 8.81,-0.01 11.61,-0 5.03,-0.5 4.21,-2.82 4.21,-11.91 0,-4.66 0,-9.32 0,-13.99 0,-4.81 1.19,-9.66 -4.4,-9.7 -2.24,-0.01 -12.01,-0.26 -13.35,0.28zm7.67 30.8c0.79,0 1.43,0.66 1.43,1.48 0,0.82 -0.64,1.48 -1.43,1.48 -0.79,0 -1.43,-0.66 -1.43,-1.48 0,-0.82 0.64,-1.48 1.43,-1.48zm-8.55 -1.2l17.13 0.06 0 -24.91 -17.13 0 0 24.84z"/>
   <path class="fil0" d="M4.04 38.9l34.92 -0.06 0 -6.36 -35.04 -0 -0 -28.98 49.86 -0.02 0 19.76 3.27 -0.02c-0,-2.8 0.01,-17.79 0.01,-20.55 0,-3.29 -1.38,-2.6 -5.9,-2.6l-42.83 0 -5.84 -0.01c-1.55,0.04 -2.39,0.91 -2.49,2.67l0 32.33c0.09,2.65 1.48,3.89 4.04,3.85zm24.48 -5.09c1.02,0 1.84,0.82 1.84,1.84 0,1.02 -0.82,1.84 -1.84,1.84 -1.02,0 -1.84,-0.82 -1.84,-1.84 0,-1.02 0.82,-1.84 1.84,-1.84z"/>
   <path class="fil0" d="M17.84 47.35l21.54 0c-2.2,-1.5 -3.54,-2.56 -3.8,-6.25l-14.1 -0.06c-0.21,3.89 -1.89,4.43 -3.64,6.31z"/>
   <path class="fil0" d="M27.39 24.43l0.98 5.5 1.11 -1.56c1.58,0.55 2.52,1.34 4.74,0.82 1.69,-0.39 2.74,-1.24 3.43,-2.37 -2.67,0.41 -4.35,-0.15 -5.79,-1.76 0.3,-0.69 0.6,-1.11 1.01,-1.67l-5.48 1.05z"/>
   <path class="fil0" d="M51.93 33.7c-1.56,-0.68 -2.87,-1.32 -4.9,-0.73 -2.21,0.64 -2.77,1.93 -3.37,2.36 3.19,-0.43 4.39,-0.12 6.07,1.92 -0.49,0.4 -0.83,0.95 -1.06,1.45l5.48 -1.05 -1.01 -5.33 -1.2 1.38z"/>
  </g>
 </g>
</svg>
