<?xml version="1.0" encoding="UTF-8"?>
<!DOCTYPE svg PUBLIC "-//W3C//DTD SVG 1.1//EN" "http://www.w3.org/Graphics/SVG/1.1/DTD/svg11.dtd">
<!-- Creator: CorelDRAW 2021 (64-Bit) -->
<svg xmlns="http://www.w3.org/2000/svg" xml:space="preserve" width="1.66667in" height="1.67656in" version="1.1" style="shape-rendering:geometricPrecision; text-rendering:geometricPrecision; image-rendering:optimizeQuality; fill-rule:evenodd; clip-rule:evenodd"
viewBox="0 0 60.1 60.46"
 xmlns:xlink="http://www.w3.org/1999/xlink"
 xmlns:xodm="http://www.corel.com/coreldraw/odm/2003">
 <defs>
  <style type="text/css">
   <![CDATA[
    .fil0 {fill:#282828;fill-rule:nonzero}
   ]]>
  </style>
 </defs>
 <g id="Layer_x0020_1">
  <metadata id="CorelCorpID_0Corel-Layer"/>
  <g id="_2379740532000">
   <path class="fil0" d="M4.61 43.05c0,-13.26 0,-26.5 0,-39.8 16.96,0 33.9,0 50.89,0 0,13.25 0,26.49 0,39.8 -16.94,0 -33.86,0 -50.89,0zm32.85 5.21c0.24,-0.45 0.52,-0.89 0.75,-1.36 0.22,-0.45 0.52,-0.58 1.01,-0.58 3.82,0.02 7.65,0.03 11.47,0.02 1.53,-0 3.06,0.03 4.59,-0.07 1.87,-0.13 3.36,-1.8 3.36,-3.67 0.01,-13 -0.02,-26.01 0.04,-39.01 0.01,-2.17 -1.74,-3.61 -3.66,-3.6 -8.32,0.05 -16.65,0.02 -24.97,0.02 0,-0.01 -16.51,-0.02 -24.77,-0.02 -0.51,0 -1.05,0 -1.53,0.15 -1.5,0.45 -2.35,1.68 -2.35,3.4 -0.01,7.27 -0.01,33.1 -0.02,38.74 -0,0.85 0.12,1.65 0.63,2.36 0.84,1.18 1.97,1.69 3.41,1.69 5.08,-0.02 10.17,-0 15.25,-0.04 0.72,-0.01 1.18,0.16 1.49,0.83 0.18,0.39 0.43,0.76 0.66,1.13 -7.59,0 -15.17,0 -22.76,0 -0.02,0.06 -0.04,0.12 -0.05,0.18 18.07,15.77 42.64,16.33 60.1,-0.18 -7.57,0 -15.11,0 -22.64,0z"/>
   <path class="fil0" d="M47.68 41.14c-11.73,0 -23.37,0 -35.12,0 0.3,-1.35 0.54,-2.65 0.89,-3.91 0.44,-1.57 1.46,-2.67 2.97,-3.28 2.48,-0.99 4.97,-1.96 7.47,-2.91 0.41,-0.16 0.62,-0.37 0.72,-0.78 0.14,-0.54 0.34,-1.07 0.54,-1.68 3.34,2.91 6.65,2.84 10.01,0 0.22,0.62 0.4,1.24 0.67,1.82 0.11,0.25 0.37,0.5 0.62,0.6 2.29,0.93 4.59,1.82 6.89,2.72 2.05,0.8 3.31,2.24 3.7,4.43 0.18,0.99 0.42,1.96 0.64,2.99z"/>
   <path class="fil0" d="M22.43 19.13c-0.14,-0.83 -0.33,-1.78 -0.44,-2.73 -0.18,-1.51 -0.08,-2.97 0.97,-4.2 0.07,-0.08 0.14,-0.2 0.13,-0.29 -0.09,-1.34 0.64,-2.31 1.5,-3.19 2.5,-2.53 7.08,-3.36 10.24,-0.44 0.16,0.15 0.36,0.26 0.7,0.51 0.54,-0.45 1.18,-0.98 1.83,-1.52 0.59,1.47 0.52,3.06 -0.29,4.62 2.01,2.26 1.2,4.8 0.75,7.31 0.9,0.2 1.04,0.34 0.97,1.29 -0.08,1.13 -0.47,2.09 -1.62,2.58 -0.19,0.08 -0.33,0.38 -0.4,0.61 -0.87,2.62 -2.49,4.54 -5.19,5.3 -2.42,0.68 -4.4,-0.3 -6.08,-2 -0.94,-0.94 -1.55,-2.08 -1.92,-3.36 -0.06,-0.2 -0.22,-0.44 -0.4,-0.52 -1.12,-0.5 -1.92,-2.22 -1.47,-3.36 0.09,-0.23 0.42,-0.35 0.74,-0.6z"/>
   <path class="fil0" d="M47.65 12.83c0.97,-0.02 1.8,-0.85 1.76,-1.77 -0.04,-0.97 -0.89,-1.79 -1.85,-1.78 -0.92,0.01 -1.76,0.86 -1.75,1.78 0,0.93 0.89,1.78 1.84,1.76zm6.1 -6.74c-0.83,0.7 -1.61,1.37 -2.39,2.03 0.81,1.25 1.16,2.41 0.94,3.73 -0.4,2.43 -2.51,4.14 -5.03,4.06 -2.36,-0.07 -4.31,-1.95 -4.53,-4.36 -0.31,-3.38 3.1,-6.07 6.39,-5.01 0.48,0.16 0.76,0.11 1.09,-0.26 0.54,-0.62 1.14,-1.2 1.76,-1.84 0.58,0.55 1.1,1.03 1.76,1.66z"/>
   <path class="fil0" d="M7.89 18.25c1.66,0 3.26,0 4.91,0 0,1.37 0,2.7 0,4.07 -1.65,0 -3.25,0 -4.91,0 0,-1.35 0,-2.68 0,-4.07z"/>
   <path class="fil0" d="M7.88 9.5c0,-0.5 0,-0.97 0,-1.47 3.24,0 6.44,0 9.67,0 0,0.5 0,0.96 0,1.47 -3.22,0 -6.41,0 -9.67,0z"/>
   <path class="fil0" d="M17.55 11.3c0,0.52 0,0.96 0,1.45 -3.23,0 -6.42,0 -9.66,0 0,-0.48 0,-0.94 0,-1.45 3.21,0 6.41,0 9.66,0z"/>
   <path class="fil0" d="M7.88 16.51c0,-0.62 0,-1.19 0,-1.86 0.84,0 1.67,0 2.49,0 0.8,0 1.61,0 2.44,0 0,0.66 0,1.24 0,1.86 -1.64,0 -3.24,0 -4.93,0z"/>
   <path class="fil0" d="M44.91 21.57c-0.64,0 -1.06,-0.41 -1.07,-1.04 -0.01,-0.61 0.43,-1.1 1.01,-1.12 0.61,-0.01 1.1,0.48 1.11,1.1 0,0.62 -0.42,1.05 -1.05,1.05z"/>
   <path class="fil0" d="M48.89 20.52c0.01,-0.62 0.47,-1.08 1.06,-1.06 0.58,0.02 1.06,0.52 1.04,1.11 -0.01,0.57 -0.51,1.01 -1.14,1 -0.6,-0.02 -0.97,-0.42 -0.97,-1.05z"/>
  </g>
 </g>
</svg>
